<?xml version="1.0" encoding="UTF-8" standalone="no"?> <svg width="64" height="64" viewBox="0 0 64 64" fill="none" xmlns="http://www.w3.org/2000/svg">
<path d="M37 27V30C37.0003 30.2346 36.9803 30.4688 36.94 30.7C36.765 31.9532 36.1208 33.0933 35.1376 33.8898C34.1544 34.6863 32.9054 35.0799 31.6432 34.991C30.3809 34.9021 29.1995 34.3374 28.3376 33.4109C27.4757 32.4845 26.9976 31.2654 27 30V27H37Z" fill="#BDDBFF"/>
<path d="M32 61C32 61 10 40 10 25C10 19.1652 12.3179 13.5695 16.4437 9.44365C20.5695 5.31785 26.1652 3 32 3C37.8348 3 43.4305 5.31785 47.5564 9.44365C51.6822 13.5695 54 19.1652 54 25C54 40 32 61 32 61ZM32 11C29.2311 11 26.5243 11.8211 24.222 13.3594C21.9197 14.8978 20.1253 17.0843 19.0657 19.6424C18.0061 22.2006 17.7288 25.0155 18.269 27.7313C18.8092 30.447 20.1426 32.9416 22.1005 34.8995C24.0584 36.8574 26.553 38.1908 29.2687 38.731C31.9845 39.2712 34.7994 38.9939 37.3576 37.9343C39.9157 36.8747 42.1022 35.0803 43.6406 32.778C45.1789 30.4757 46 27.7689 46 25C46 21.287 44.525 17.726 41.8995 15.1005C39.274 12.475 35.713 11 32 11Z" fill="#BDDBFF"/>
<path d="M38 26H27C26.7348 26 26.4804 26.1054 26.2929 26.2929C26.1054 26.4804 26 26.7348 26 27V30C26.0042 31.4144 26.5079 32.7818 27.4223 33.8609C28.3367 34.9401 29.6029 35.6614 30.9974 35.8978C32.3919 36.1341 33.8251 35.8702 35.0439 35.1527C36.2628 34.4351 37.189 33.31 37.659 31.976C38.0671 32.0277 38.4815 31.9949 38.8764 31.8797C39.2714 31.7644 39.6384 31.5692 39.9546 31.3061C40.2709 31.043 40.5297 30.7176 40.7148 30.3503C40.9 29.9829 41.0077 29.5814 41.0311 29.1707C41.0546 28.76 40.9933 28.3488 40.8511 27.9628C40.7089 27.5768 40.4888 27.2241 40.2045 26.9267C39.9202 26.6294 39.5778 26.3936 39.1986 26.2342C38.8193 26.0748 38.4114 25.9951 38 26ZM36 30C36 31.0609 35.5786 32.0783 34.8284 32.8284C34.0783 33.5786 33.0609 34 32 34C30.9391 34 29.9217 33.5786 29.1716 32.8284C28.4214 32.0783 28 31.0609 28 30V28H36V30ZM38 30V28C38.2652 28 38.5196 28.1054 38.7071 28.2929C38.8946 28.4804 39 28.7348 39 29C39 29.2652 38.8946 29.5196 38.7071 29.7071C38.5196 29.8946 38.2652 30 38 30Z" fill="#3D9AE2"/>
<path d="M29 22.5V24H31V22.5C31 21.837 30.7366 21.2011 30.2678 20.7322C29.7989 20.2634 29.163 20 28.5 20H25.5C25.3674 20 25.2402 19.9473 25.1464 19.8536C25.0527 19.7598 25 19.6326 25 19.5C25 19.3674 25.0527 19.2402 25.1464 19.1464C25.2402 19.0527 25.3674 19 25.5 19H26.5C27.163 19 27.7989 18.7366 28.2678 18.2678C28.7366 17.7989 29 17.163 29 16.5V15H27V16.5C27 16.6326 26.9473 16.7598 26.8536 16.8536C26.7598 16.9473 26.6326 17 26.5 17H25.5C24.837 17 24.2011 17.2634 23.7322 17.7322C23.2634 18.2011 23 18.837 23 19.5C23 20.163 23.2634 20.7989 23.7322 21.2678C24.2011 21.7366 24.837 22 25.5 22H28.5C28.6326 22 28.7598 22.0527 28.8536 22.1464C28.9473 22.2402 29 22.3674 29 22.5Z" fill="#3D9AE2"/>
<path d="M33.5 21C33.6326 21 33.7598 21.0527 33.8536 21.1464C33.9473 21.2402 34 21.3674 34 21.5V24H36V21.5C36 20.837 35.7366 20.2011 35.2678 19.7322C34.7989 19.2634 34.163 19 33.5 19C33.3674 19 33.2402 18.9473 33.1464 18.8536C33.0527 18.7598 33 18.6326 33 18.5C33 18.3674 33.0527 18.2402 33.1464 18.1464C33.2402 18.0527 33.3674 18 33.5 18H34.5C35.163 18 35.7989 17.7366 36.2678 17.2678C36.7366 16.7989 37 16.163 37 15.5V14H35V15.5C35 15.6326 34.9473 15.7598 34.8536 15.8536C34.7598 15.9473 34.6326 16 34.5 16H33.5C32.837 16 32.2011 16.2634 31.7322 16.7322C31.2634 17.2011 31 17.837 31 18.5C31 19.163 31.2634 19.7989 31.7322 20.2678C32.2011 20.7366 32.837 21 33.5 21Z" fill="#3D9AE2"/>
<path d="M32 10C29.0333 10 26.1332 10.8797 23.6665 12.528C21.1997 14.1762 19.2771 16.5189 18.1418 19.2597C17.0065 22.0006 16.7094 25.0166 17.2882 27.9264C17.867 30.8361 19.2956 33.5088 21.3934 35.6066C23.4912 37.7044 26.1639 39.133 29.0737 39.7118C31.9834 40.2906 34.9994 39.9935 37.7403 38.8582C40.4811 37.7229 42.8238 35.8003 44.4721 33.3336C46.1203 30.8668 47 27.9667 47 25C46.9955 21.0231 45.4137 17.2104 42.6016 14.3984C39.7896 11.5863 35.9769 10.0045 32 10ZM32 38C29.4288 38 26.9154 37.2376 24.7776 35.8091C22.6398 34.3806 20.9735 32.3503 19.9896 29.9749C19.0056 27.5994 18.7482 24.9856 19.2498 22.4638C19.7514 19.9421 20.9895 17.6257 22.8076 15.8076C24.6257 13.9895 26.9421 12.7514 29.4638 12.2498C31.9856 11.7482 34.5995 12.0056 36.9749 12.9896C39.3503 13.9735 41.3807 15.6397 42.8091 17.7776C44.2376 19.9154 45 22.4288 45 25C44.996 28.4466 43.6251 31.7509 41.188 34.188C38.7509 36.6251 35.4466 37.996 32 38Z" fill="#3D9AE2"/>
<path d="M32 2C25.9021 2.00688 20.056 4.4323 15.7441 8.74414C11.4323 13.056 9.00688 18.9021 9 25C9 40.252 30.4 60.854 31.31 61.723C31.496 61.9003 31.7431 61.9992 32 61.9992C32.2569 61.9992 32.504 61.9003 32.69 61.723C33.6 60.854 55 40.252 55 25C54.9931 18.9021 52.5677 13.056 48.2559 8.74414C43.944 4.4323 38.0979 2.00688 32 2ZM32 59.6C28.3 55.9 11 37.923 11 25C11 19.4305 13.2125 14.089 17.1508 10.1508C21.089 6.21249 26.4305 4 32 4C37.5695 4 42.911 6.21249 46.8492 10.1508C50.7875 14.089 53 19.4305 53 25C53 37.923 35.7 55.9 32 59.6Z" fill="#3D9AE2"/>
<path d="M33 6H31V8H33V6Z" fill="#3D9AE2"/>
<path d="M35.9515 6.38877L35.4339 8.32062L37.3658 8.83826L37.8834 6.9064L35.9515 6.38877Z" fill="#3D9AE2"/>
<path d="M40.6333 8.04496L39.6335 9.7771L41.3656 10.7769L42.3655 9.04481L40.6333 8.04496Z" fill="#3D9AE2"/>
<path d="M44.7281 10.8579L43.3138 12.2722L44.7281 13.6864L46.1423 12.2722L44.7281 10.8579Z" fill="#3D9AE2"/>
<path d="M47.9537 14.6336L46.2227 15.6334L47.2224 17.3644L48.9535 16.3646L47.9537 14.6336Z" fill="#3D9AE2"/>
<path d="M50.0939 19.1158L48.162 19.6335L48.6797 21.5653L50.6115 21.0477L50.0939 19.1158Z" fill="#3D9AE2"/>
<path d="M51 24H49V26H51V24Z" fill="#3D9AE2"/>
<path d="M48.6796 28.4334L48.1619 30.3652L50.0938 30.8829L50.6114 28.951L48.6796 28.4334Z" fill="#3D9AE2"/>
<path d="M47.2229 32.6349L46.2231 34.3659L47.9541 35.3657L48.9539 33.6346L47.2229 32.6349Z" fill="#3D9AE2"/>
<path d="M44.7282 36.3131L43.314 37.7273L44.7282 39.1415L46.1424 37.7273L44.7282 36.3131Z" fill="#3D9AE2"/>
<path d="M41.366 39.2221L39.634 40.2222L40.6341 41.9542L42.3661 40.9541L41.366 39.2221Z" fill="#3D9AE2"/>
<path d="M37.3665 41.1619L35.4347 41.6795L35.9523 43.6114L37.8842 43.0937L37.3665 41.1619Z" fill="#3D9AE2"/>
<path d="M33 42H31V44H33V42Z" fill="#3D9AE2"/>
<path d="M26.634 41.1624L26.1163 43.0943L28.0482 43.6119L28.5658 41.6801L26.634 41.1624Z" fill="#3D9AE2"/>
<path d="M22.6331 39.2224L21.6333 40.9545L23.3654 41.9543L24.3653 40.2222L22.6331 39.2224Z" fill="#3D9AE2"/>
<path d="M19.2728 36.3134L17.8586 37.7277L19.2728 39.1419L20.687 37.7277L19.2728 36.3134Z" fill="#3D9AE2"/>
<path d="M16.7775 32.6344L15.0464 33.6342L16.0462 35.3652L17.7772 34.3654L16.7775 32.6344Z" fill="#3D9AE2"/>
<path d="M15.3205 28.4345L13.3887 28.9522L13.9063 30.884L15.8382 30.3664L15.3205 28.4345Z" fill="#3D9AE2"/>
<path d="M15 24H13V26H15V24Z" fill="#3D9AE2"/>
<path d="M13.9059 19.1168L13.3882 21.0487L15.3201 21.5663L15.8377 19.6345L13.9059 19.1168Z" fill="#3D9AE2"/>
<path d="M16.0451 14.635L15.0453 16.3661L16.7763 17.3658L17.7761 15.6348L16.0451 14.635Z" fill="#3D9AE2"/>
<path d="M19.2727 10.8573L17.8585 12.2715L19.2727 13.6858L20.6869 12.2715L19.2727 10.8573Z" fill="#3D9AE2"/>
<path d="M23.3659 8.04526L21.6339 9.04532L22.634 10.7773L24.366 9.77727L23.3659 8.04526Z" fill="#3D9AE2"/>
<path d="M28.0479 6.38849L26.116 6.90613L26.6337 8.83798L28.5655 8.32034L28.0479 6.38849Z" fill="#3D9AE2"/>
</svg>
