<?xml version="1.0" encoding="UTF-8" standalone="no"?> <svg width="512" height="512" viewBox="0 0 512 512" fill="none" xmlns="http://www.w3.org/2000/svg">
<g clip-path="url(#clip0_30:368)">
<path d="M426.667 170.667C426.667 76.563 350.1 0 256 0C161.9 0 85.333 76.563 85.333 170.667C85.333 257.532 150.617 329.301 234.666 339.853V490.667C234.666 496.325 236.914 501.751 240.914 505.752C244.915 509.753 250.342 512 256 512C261.658 512 267.084 509.753 271.085 505.752C275.085 501.751 277.333 496.325 277.333 490.667V339.852C361.383 329.3 426.667 257.531 426.667 170.667ZM256 298.667C230.684 298.667 205.937 291.16 184.887 277.095C163.838 263.03 147.431 243.039 137.743 219.65C128.055 196.262 125.521 170.525 130.459 145.695C135.398 120.866 147.589 98.0585 165.49 80.1573C183.391 62.2562 206.199 50.0654 231.028 45.1265C255.858 40.1876 281.595 42.7224 304.983 52.4104C328.372 62.0984 348.363 78.5045 362.428 99.554C376.493 120.604 384 145.351 384 170.667C383.961 204.603 370.463 237.137 346.467 261.134C322.47 285.13 289.936 298.628 256 298.667V298.667Z" fill="black"/>
<path d="M256 74.667C230.548 74.6967 206.148 84.8204 188.15 102.818C170.153 120.815 160.03 145.215 160 170.667C160 176.325 162.248 181.751 166.248 185.752C170.249 189.753 175.676 192.001 181.333 192.001C186.991 192.001 192.418 189.753 196.419 185.752C200.419 181.751 202.667 176.325 202.667 170.667C202.684 156.528 208.309 142.972 218.307 132.974C228.305 122.976 241.86 117.351 256 117.333C261.658 117.333 267.084 115.085 271.085 111.085C275.086 107.084 277.333 101.658 277.333 95.9995C277.333 90.3415 275.086 84.9153 271.085 80.9145C267.084 76.9136 261.658 74.666 256 74.666V74.667Z" fill="black"/>
</g>
<defs>
<clipPath id="clip0_30:368">
<rect width="512" height="512" fill="white"/>
</clipPath>
</defs>
</svg>
