<?xml version="1.0" encoding="utf-8"?>
<!-- Generator: Adobe Illustrator 17.0.0, SVG Export Plug-In . SVG Version: 6.00 Build 0)  -->
<!DOCTYPE svg PUBLIC "-//W3C//DTD SVG 1.1//EN" "http://www.w3.org/Graphics/SVG/1.1/DTD/svg11.dtd">
<svg version="1.1" id="Capa_1" xmlns="http://www.w3.org/2000/svg" xmlns:xlink="http://www.w3.org/1999/xlink" x="0px" y="0px"
	 width="595.28px" height="841.89px" viewBox="0 0 595.28 841.89" enable-background="new 0 0 595.28 841.89" xml:space="preserve">
<g>
	<g>
		<path fill="#1B1B47" d="M496.067,220.387c0-26.184-21.292-47.475-47.475-47.475c-5.798,0-11.395,1.155-16.669,3.137
			c-36.771-33.965-83.993-52.744-134.283-52.744c-109.411,0-198.427,89.016-198.427,198.427c0,32.869,8.223,65.424,23.823,94.296
			L286.789,712.19c2.18,3.948,6.334,6.395,10.851,6.395c4.517,0,8.671-2.446,10.851-6.395l163.814-296.283
			c15.539-28.751,23.762-61.306,23.762-94.175c0-23.911-4.424-47.134-12.693-69.266C491.384,243.779,496.067,232.26,496.067,220.387
			z M450.541,404.014L297.64,680.557L144.8,404.135c-13.601-25.167-20.782-53.652-20.782-82.403
			c0-95.725,77.886-173.623,173.623-173.623c42.207,0,81.973,15.09,113.554,42.532l-53.032,53.023
			c-17.304-13.472-38.227-21.146-60.522-21.146c-54.705,0-99.213,44.496-99.213,99.213c0,35.54,19.39,68.069,49.911,85.658
			c-0.336,3.637,0.707,7.3,3.329,9.922c2.35,2.35,5.511,3.633,8.769,3.633c0.812,0,1.623-0.073,2.435-0.242l61.985-12.402
			c2.399-0.485,4.602-1.647,6.334-3.391l132.815-132.804c4.777,16.016,7.261,32.619,7.261,49.627
			C471.263,350.483,464.081,378.968,450.541,404.014z M284.258,352.615l112.587-112.568l32.074,32.074L316.303,384.708
			l-40.063,8.018L284.258,352.615z M264.068,337.743c-1.732,1.72-2.907,3.924-3.391,6.346l-7.388,36.953
			c-18.563-13.866-30.059-35.694-30.059-59.309c0-41.032,33.378-74.41,74.41-74.41c15.66,0,30.481,4.968,42.979,13.882
			L264.068,337.743z M464.638,236.422c-0.012,0-0.012,0-0.012,0l-18.168,18.165l-32.077-32.077l18.162-18.16
			c4.299-4.288,9.992-6.636,16.047-6.636c12.499,0,22.672,10.173,22.672,22.672C471.263,226.37,468.841,232.208,464.638,236.422z"/>
	</g>
</g>
</svg>
