<?xml version="1.0" encoding="UTF-8" standalone="no"?> <svg width="64" height="64" viewBox="0 0 64 64" fill="none" xmlns="http://www.w3.org/2000/svg">
<path d="M45 3H19C19 5.12173 19.8429 7.15656 21.3431 8.65685C22.8434 10.1571 24.8783 11 27 11H37C39.1217 11 41.1566 10.1571 42.6569 8.65685C44.1571 7.15656 45 5.12173 45 3V3Z" fill="#ED1C24"/>
<path d="M43 3C43 5.12173 42.1571 7.15656 40.6569 8.65685C39.1566 10.1571 37.1217 11 35 11H37C39.1217 11 41.1566 10.1571 42.6569 8.65685C44.1571 7.15656 45 5.12173 45 3H43Z" fill="#D80027"/>
<path d="M39 29L37 11H27L25 29H39Z" fill="#D80027"/>
<path d="M37 11H35L37 29H39L37 11Z" fill="#BD0022"/>
<path d="M32 61L35 41H29L32 61Z" fill="#6D6E71"/>
<path d="M17 37V41H47V37C47 34.8783 46.1571 32.8434 44.6569 31.3431C43.1566 29.8429 41.1217 29 39 29H25C22.8783 29 20.8434 29.8429 19.3431 31.3431C17.8429 32.8434 17 34.8783 17 37V37Z" fill="#ED1C24"/>
<path d="M39 29H37C39.1217 29 41.1566 29.8429 42.6569 31.3431C44.1571 32.8434 45 34.8783 45 37V41H47V37C47 34.8783 46.1571 32.8434 44.6569 31.3431C43.1566 29.8429 41.1217 29 39 29V29Z" fill="#D80027"/>
<path d="M39.9 28.05L38.11 11.92C40.2865 11.6508 42.2897 10.5956 43.7428 8.95288C45.1958 7.31016 45.9985 5.19313 46 3C46 2.73478 45.8946 2.48043 45.7071 2.29289C45.5196 2.10536 45.2652 2 45 2H19C18.7348 2 18.4804 2.10536 18.2929 2.29289C18.1054 2.48043 18 2.73478 18 3C18.0015 5.19313 18.8042 7.31016 20.2572 8.95288C21.7103 10.5956 23.7135 11.6508 25.89 11.92L24.1 28.05C21.8814 28.2743 19.8249 29.3138 18.3286 30.9671C16.8323 32.6204 16.0026 34.7701 16 37V41C16 41.2652 16.1054 41.5196 16.2929 41.7071C16.4804 41.8946 16.7348 42 17 42H28.14L31.01 61.15C31.044 61.3884 31.1628 61.6065 31.3447 61.7643C31.5265 61.9221 31.7592 62.0089 32 62.0089C32.2408 62.0089 32.4735 61.9221 32.6553 61.7643C32.8372 61.6065 32.956 61.3884 32.99 61.15L35.86 42H47C47.2652 42 47.5196 41.8946 47.7071 41.7071C47.8946 41.5196 48 41.2652 48 41V37C47.9974 34.7701 47.1677 32.6204 45.6714 30.9671C44.1751 29.3138 42.1186 28.2743 39.9 28.05V28.05ZM20.07 4H43.93C43.6869 5.66517 42.8532 7.18742 41.581 8.28893C40.3087 9.39043 38.6828 9.99773 37 10H27C25.3172 9.99773 23.6913 9.39043 22.419 8.28893C21.1468 7.18742 20.3131 5.66517 20.07 4V4ZM37.88 28H26.12L27.9 12H36.1L37.88 28ZM32 54.26L30.16 42H33.84L32 54.26ZM46 40H18V37C18.0021 35.1441 18.7403 33.3649 20.0526 32.0526C21.3649 30.7403 23.1441 30.0021 25 30H39C40.8559 30.0021 42.6351 30.7403 43.9474 32.0526C45.2597 33.3649 45.9979 35.1441 46 37V40Z" fill="#231F20"/>
</svg>
