<?xml version="1.0" encoding="utf-8"?>
<!-- Generator: Adobe Illustrator 17.0.0, SVG Export Plug-In . SVG Version: 6.00 Build 0)  -->
<!DOCTYPE svg PUBLIC "-//W3C//DTD SVG 1.1//EN" "http://www.w3.org/Graphics/SVG/1.1/DTD/svg11.dtd">
<svg version="1.1" id="Capa_1" xmlns="http://www.w3.org/2000/svg" xmlns:xlink="http://www.w3.org/1999/xlink" x="0px" y="0px"
	 width="595.28px" height="841.89px" viewBox="0 0 595.28 841.89" enable-background="new 0 0 595.28 841.89" xml:space="preserve">
<g>
	<g>
		<g>
			<path fill="#1B1B47" d="M297.64,185.313c-75.222,0-136.418,61.196-136.418,136.418S222.418,458.15,297.64,458.15
				s136.418-61.196,136.418-136.418S372.862,185.313,297.64,185.313z M297.64,433.347c-61.549,0-111.615-50.067-111.615-111.615
				c0-26.302,9.522-50.185,24.797-69.282L366.92,408.549C347.825,423.825,323.942,433.347,297.64,433.347z M384.458,391.012
				L228.36,234.914c19.095-15.275,42.979-24.797,69.28-24.797c61.549,0,111.615,50.067,111.615,111.615
				C409.255,348.034,399.733,371.917,384.458,391.012z"/>
			<path fill="#1B1B47" d="M297.64,123.305c-109.411,0-198.427,89.016-198.427,198.427c0,32.845,8.212,65.411,23.823,94.296
				L286.789,712.19c2.18,3.948,6.334,6.395,10.851,6.395c4.517,0,8.671-2.446,10.851-6.395l163.814-296.26
				c15.551-28.787,23.762-61.355,23.762-94.2C496.067,212.321,407.051,123.305,297.64,123.305z M450.541,404.026L297.64,680.557
				L144.8,404.135c-13.601-25.167-20.782-53.664-20.782-82.403c0-95.738,77.886-173.623,173.623-173.623
				s173.623,77.886,173.623,173.623C471.263,350.471,464.081,378.968,450.541,404.026z"/>
		</g>
	</g>
</g>
</svg>
