<?xml version="1.0" encoding="utf-8"?>
<!-- Generator: Adobe Illustrator 17.0.0, SVG Export Plug-In . SVG Version: 6.00 Build 0)  -->
<!DOCTYPE svg PUBLIC "-//W3C//DTD SVG 1.1//EN" "http://www.w3.org/Graphics/SVG/1.1/DTD/svg11.dtd">
<svg version="1.1" id="Capa_1" xmlns="http://www.w3.org/2000/svg" xmlns:xlink="http://www.w3.org/1999/xlink" x="0px" y="0px"
	 width="595.28px" height="841.89px" viewBox="0 0 595.28 841.89" enable-background="new 0 0 595.28 841.89" xml:space="preserve">
<g>
	<g>
		<g>
			<path fill="#1B1B47" d="M413.506,257.956c2.931-4.881,2.156-11.13-1.865-15.151l-35.074-35.074
				c-4.033-4.045-10.27-4.784-15.151-1.865l-21.001,12.595l-5.947-23.762c-1.381-5.511-6.334-9.386-12.027-9.386h-49.607
				c-5.692,0-10.645,3.875-12.026,9.386l-5.947,23.762l-20.998-12.596c-4.881-2.907-11.13-2.156-15.151,1.865l-35.074,35.074
				c-4.02,4.02-4.796,10.27-1.865,15.151l12.595,21.001l-23.762,5.947c-5.511,1.381-9.386,6.334-9.386,12.027v49.606
				c0,5.692,3.875,10.645,9.386,12.027l23.762,5.947l-12.595,21.001c-2.931,4.881-2.156,11.13,1.865,15.151l35.074,35.074
				c4.009,4.009,10.258,4.76,15.151,1.865l21.001-12.595l5.947,23.762c1.381,5.511,6.334,9.386,12.027,9.386h49.607
				c5.692,0,10.645-3.875,12.027-9.386l5.947-23.762l21.001,12.595c4.892,2.918,11.142,2.168,15.151-1.865l35.074-35.074
				c4.02-4.02,4.796-10.27,1.865-15.151l-12.595-21.001l23.762-5.947c5.511-1.381,9.386-6.334,9.386-12.027v-49.607
				c0-5.692-3.875-10.645-9.386-12.026l-23.762-5.947L413.506,257.956z M409.255,306.605v30.253l-21.303,5.328
				c-4.045,1.006-7.315,3.984-8.695,7.933c-1.102,3.173-2.314,6.274-3.779,9.277c-1.829,3.779-1.635,8.212,0.521,11.808
				l11.264,18.759l-21.388,21.388l-18.759-11.264c-3.609-2.168-8.042-2.374-11.808-0.521c-3.003,1.465-6.104,2.676-9.277,3.779
				c-3.948,1.381-6.927,4.651-7.933,8.696l-5.328,21.303h-30.255l-5.328-21.303c-1.006-4.045-3.984-7.315-7.933-8.696
				c-3.173-1.102-6.274-2.314-9.277-3.779c-3.767-1.84-8.212-1.647-11.808,0.521l-18.759,11.264l-21.388-21.388l11.264-18.759
				c2.156-3.597,2.35-8.029,0.521-11.808c-1.465-3.003-2.676-6.104-3.779-9.277c-1.381-3.948-4.651-6.927-8.696-7.933l-21.306-5.328
				v-30.253l21.303-5.328c4.045-1.006,7.315-3.984,8.696-7.933c1.102-3.173,2.314-6.274,3.779-9.277
				c1.829-3.779,1.635-8.212-0.521-11.808l-11.264-18.759l21.388-21.388l18.759,11.264c3.597,2.144,8.029,2.35,11.808,0.521
				c3.003-1.465,6.104-2.676,9.277-3.779c3.948-1.381,6.927-4.651,7.933-8.696l5.328-21.303h30.253l5.328,21.303
				c1.006,4.045,3.984,7.315,7.933,8.696c3.173,1.102,6.274,2.314,9.277,3.779c3.779,1.84,8.199,1.623,11.808-0.521l18.759-11.264
				l21.388,21.388l-11.264,18.759c-2.156,3.597-2.35,8.029-0.521,11.808c1.465,3.003,2.676,6.104,3.779,9.277
				c1.381,3.948,4.651,6.927,8.696,7.933L409.255,306.605z"/>
			<path fill="#1B1B47" d="M297.64,259.723c-34.189,0-62.008,27.819-62.008,62.008s27.819,62.009,62.008,62.009
				s62.008-27.819,62.008-62.008S331.829,259.723,297.64,259.723z M297.64,358.937c-20.516,0-37.205-16.689-37.205-37.205
				c0-20.516,16.689-37.205,37.205-37.205s37.205,16.689,37.205,37.205C334.845,342.248,318.156,358.937,297.64,358.937z"/>
			<path fill="#1B1B47" d="M297.64,123.305c-109.411,0-198.427,89.016-198.427,198.427c0,32.845,8.212,65.411,23.823,94.296
				L286.789,712.19c2.18,3.948,6.334,6.395,10.851,6.395c4.517,0,8.671-2.446,10.851-6.395l163.814-296.26
				c15.551-28.787,23.762-61.355,23.762-94.2C496.067,212.321,407.051,123.305,297.64,123.305z M450.541,404.026L297.64,680.557
				L144.8,404.135c-13.601-25.167-20.782-53.664-20.782-82.403c0-95.738,77.886-173.623,173.623-173.623
				s173.623,77.886,173.623,173.623C471.263,350.471,464.081,378.968,450.541,404.026z"/>
		</g>
	</g>
</g>
</svg>
